<svg width="105" height="105" fill="none" xmlns="http://www.w3.org/2000/svg"><mask id="a" fill="#fff"><path d="M93.246 82.66c.802.594 1.935.427 2.5-.395a52.498 52.498 0 00-8.705-69.302 52.5 52.5 0 10-5.954 83.571c.837-.543 1.034-1.672.463-2.489-.572-.817-1.696-1.013-2.534-.472A48.89 48.89 0 013.683 49.865a48.888 48.888 0 1189.159 30.25c-.563.823-.398 1.952.404 2.546z"/></mask><path d="M93.246 82.66c.802.594 1.935.427 2.5-.395a52.498 52.498 0 00-8.705-69.302 52.5 52.5 0 10-5.954 83.571c.837-.543 1.034-1.672.463-2.489-.572-.817-1.696-1.013-2.534-.472A48.89 48.89 0 013.683 49.865a48.888 48.888 0 1189.159 30.25c-.563.823-.398 1.952.404 2.546z" stroke="#5BC22A" stroke-width="8" stroke-linecap="round" stroke-linejoin="round" mask="url(#a)"/><mask id="b" fill="#fff"><path d="M17.693 35.935c-.91-.417-1.99-.018-2.366.91a40.303 40.303 0 1025.03-23.252c-.954.306-1.43 1.354-1.082 2.292.349.938 1.391 1.411 2.346 1.11a36.677 36.677 0 11-22.994 21.36c.371-.929-.024-2.003-.934-2.42z"/></mask><path d="M17.693 35.935c-.91-.417-1.99-.018-2.366.91a40.303 40.303 0 1025.03-23.252c-.954.306-1.43 1.354-1.082 2.292.349.938 1.391 1.411 2.346 1.11a36.677 36.677 0 11-22.994 21.36c.371-.929-.024-2.003-.934-2.42z" stroke="#5BC22A" stroke-width="8" stroke-linecap="round" stroke-linejoin="round" mask="url(#b)"/><circle cx="88" cy="88" r="2" fill="#5BC22A"/><path d="M21.914 76.239c1.674-2.13 6.483-6.574 12.326-7.304 5.844-.73 25.87-.305 35.152 0 1.979 0 7.487 1.46 13.696 7.304" stroke="#5BC22A" stroke-width="4"/><circle cx="52.958" cy="43.565" r="16.435" stroke="#5BC22A" stroke-width="4"/></svg>