<svg width="102" height="122" fill="none" xmlns="http://www.w3.org/2000/svg"><path d="M6 20.5L17.5 32m-11 69.5L18 90M50.512 3l.24 16.262m.26 99.738l.24-16.262M94.992 20L83.864 31.86M95.492 102L84.364 90.14m13.58-34.075c-40.107-43.436-77.728-20.192-94.258-.06-1.667 2.031-1.59 4.967.066 7.008 39.25 48.364 77.619 22.455 94.597.186 1.635-2.145 1.424-5.152-.405-7.134z" stroke="#5BC22A" stroke-width="4" stroke-linecap="round" stroke-linejoin="round"/><circle cx="51" cy="60" r="8" stroke="#5BC22A" stroke-width="4"/><circle cx="35" cy="51" r="2" fill="#5BC22A"/><mask id="a" fill="#fff"><path d="M32.786 57.657c-.906-.17-1.786.426-1.883 1.343a20.623 20.623 0 1010.293-15.75c-.802.457-.994 1.502-.474 2.264.52.761 1.556.95 2.364.505a17.283 17.283 0 11-8.888 13.6c.083-.918-.505-1.791-1.412-1.962z"/></mask><path d="M32.786 57.657c-.906-.17-1.786.426-1.883 1.343a20.623 20.623 0 1010.293-15.75c-.802.457-.994 1.502-.474 2.264.52.761 1.556.95 2.364.505a17.283 17.283 0 11-8.888 13.6c.083-.918-.505-1.791-1.412-1.962z" stroke="#5BC22A" stroke-width="6" stroke-linecap="round" stroke-linejoin="round" mask="url(#a)"/></svg>