<svg width="103" height="95" fill="none" xmlns="http://www.w3.org/2000/svg"><path d="M31.89 31.432c.095 5.101 2.16 9.907 5.812 13.531 3.653 3.624 8.475 5.65 13.578 5.706a19.56 19.56 0 006.937-1.18 1.509 1.509 0 10-1.033-2.835 16.479 16.479 0 01-5.871.998c-8.88-.098-16.24-7.4-16.407-16.289-.12-4.517 1.713-8.96 5.031-12.188 3.319-3.229 7.811-4.94 12.336-4.697 8.65.392 15.597 7.484 15.816 16.147a16.576 16.576 0 01-.91 5.883 3.138 3.138 0 01-2.97 2.092 3.157 3.157 0 01-3.155-3.154V23.01a1.509 1.509 0 10-3.017 0v1.088a9.518 9.518 0 00-6.538-2.597c-5.269 0-9.555 4.287-9.555 9.556 0 5.268 4.286 9.555 9.555 9.555a9.528 9.528 0 006.934-2.992 6.18 6.18 0 005.775 3.998 6.157 6.157 0 005.822-4.119 19.582 19.582 0 001.076-6.95c-.26-10.24-8.472-18.622-18.683-19.085-5.35-.289-10.67 1.734-14.59 5.549-3.92 3.814-6.086 9.074-5.944 14.419zm19.61 6.162a6.545 6.545 0 01-6.538-6.537 6.545 6.545 0 016.537-6.538 6.545 6.545 0 016.538 6.538 6.545 6.545 0 01-6.538 6.537z" fill="#5BC22A"/><path d="M102.416 36.056l-42.3-33.053a13.572 13.572 0 00-16.659-.049L.591 36.048A1.522 1.522 0 000 37.245v13.277a1.508 1.508 0 103.017 0V39.816l37.94 21.193-37.94 29.29V57.562a1.508 1.508 0 10-3.018 0V93.37c-.013.81.698 1.523 1.509 1.509h99.978c.805.01 1.526-.7 1.509-1.509V37.423c.036-.518-.162-1.047-.58-1.367zM5.932 91.86l39.37-30.394a10.555 10.555 0 0112.956.038l.726.568L77.9 76.853a1.509 1.509 0 001.858-2.378L62.612 61.08l9.277-5.226a1.509 1.509 0 00-1.481-2.63l-10.373 5.844a13.568 13.568 0 00-16.477-.062L4.24 37.042l41.061-31.7a10.555 10.555 0 0112.957.039l40.667 31.776-22.558 12.71a1.509 1.509 0 001.48 2.628L99.98 40.027v50.248L85.147 78.686a1.509 1.509 0 00-1.858 2.378L97.106 91.86H5.932z" fill="#5BC22A"/></svg>