<svg width="116" height="116" fill="none" xmlns="http://www.w3.org/2000/svg"><path d="M112.035 7.915H3.965A3.97 3.97 0 000 11.88v13.955c0 2.197 3.398 2.197 3.398 0V11.88c0-.312.254-.567.567-.567h108.07c.313 0 .567.255.567.567v82.863a.567.567 0 01-.567.566H90.26v-3.536h17.09a1.7 1.7 0 001.7-1.699V72.28c0-2.197-3.399-2.197-3.399 0v16.095H90.26v-7.54l.163.015c1.41.124 3.165.278 4.38-.94 1.215-1.216 1.061-2.972.938-4.384-.133-1.514.01-1.929 1.174-2.897 2.997-2.492 3.053-5.16 0-7.698-1.164-.968-1.306-1.383-1.174-2.897.332-3.801-1.443-5.664-5.318-5.324-1.512.133-1.922-.01-2.887-1.175-2.488-3.004-5.158-3.06-7.693 0-.964 1.164-1.374 1.309-2.886 1.175-3.804-.334-5.658 1.451-5.318 5.324.132 1.515-.01 1.928-1.175 2.897-2.997 2.492-3.052 5.16 0 7.698 1.164.969 1.307 1.383 1.175 2.898-.357 4.07 1.587 5.645 5.48 5.309v7.54H10.35v-70.13h95.302v44.972c0 2.197 3.399 2.197 3.399 0v-46.67a1.7 1.7 0 00-1.7-1.699H8.65a1.7 1.7 0 00-1.7 1.7v73.525a1.7 1.7 0 001.7 1.7h68.47v3.535H3.964a.567.567 0 01-.567-.566V34.444c0-2.197-3.398-2.197-3.398 0v60.299a3.97 3.97 0 003.965 3.965h73.154v7.691c.242 1.397 1.047 1.91 2.416 1.541l4.154-1.932 4.155 1.932c1.028.478 2.416-.278 2.416-1.541v-7.692h21.775A3.97 3.97 0 00116 94.743V11.88a3.97 3.97 0 00-3.965-3.965zm-35.376 69.55c-1.702.149-1.784.058-1.635-1.642.228-2.61-.372-4.132-2.387-5.807-1.38-1.147-1.379-1.326 0-2.472 2.015-1.676 2.615-3.198 2.387-5.807-.149-1.7-.067-1.79 1.635-1.642 2.61.23 4.13-.375 5.8-2.393 1.143-1.378 1.318-1.378 2.46 0 1.672 2.018 3.192 2.622 5.801 2.393 1.701-.15 1.784-.059 1.635 1.642-.228 2.609.372 4.131 2.387 5.806 1.379 1.147 1.38 1.326 0 2.473-2.015 1.675-2.616 3.197-2.387 5.806.15 1.7.066 1.792-1.635 1.642-1.067-.094-2.278-.2-3.344.243-1.031.428-1.756 1.303-2.457 2.15-.33.398-.934 1.127-1.23 1.257-.296-.13-.899-.859-1.23-1.257-.7-.847-1.425-1.722-2.457-2.15a7.44 7.44 0 00-3.343-.243zm7.747 25.128a1.702 1.702 0 00-1.433 0l-2.455 1.142V82.812c.806.887 1.8 1.71 3.171 1.71 1.371 0 2.366-.823 3.172-1.71v20.923l-2.455-1.142z" fill="#5BC22A"/><path d="M22.038 32.47h58.578c2.197 0 2.197-3.397 0-3.397H22.038c-2.197 0-2.197 3.398 0 3.398zm73.624 8.637a1.7 1.7 0 00-1.699-1.699H22.035c-2.197 0-2.197 3.398 0 3.398h71.928c.939 0 1.7-.76 1.7-1.699zM64.6 51.442a1.7 1.7 0 00-1.699-1.7H22.035c-2.197 0-2.197 3.4 0 3.4h40.866a1.7 1.7 0 001.7-1.7zM42.288 75.128l-2.78.003c-1.782.001-2.763-.474-3.127-2.364-.333-1.725-2.821-1.505-3.277 0-.202.667-1.221 2.576-2.112 2.42-.472-.083-.678-.81-.853-1.188-.34-.734-.587-1.511-.799-2.29-.894-3.294-1.073-6.732-1.632-10.087-.325-1.945-3.29-1.395-3.338.452-.152 5.884-1.114 11.687-3.209 17.203-.777 2.046 2.507 2.931 3.277.903a48.042 48.042 0 001.947-6.514c.266.806.585 1.595.973 2.364.993 1.96 3.017 3.12 5.182 2.249.773-.312 1.478-.856 2.078-1.518 1.608 1.854 4 1.77 6.23 1.767 3.365-.004 6.729-.012 10.093-.021 2.186-.007 2.19-3.405 0-3.399-2.885.008-5.769.015-8.653.02zm41.404.289a6.645 6.645 0 006.637-6.637 6.645 6.645 0 00-6.637-6.637 6.645 6.645 0 00-6.637 6.637 6.644 6.644 0 006.637 6.637zm0-9.876a3.242 3.242 0 013.238 3.239 3.242 3.242 0 01-3.238 3.238 3.242 3.242 0 01-3.239-3.238 3.242 3.242 0 013.239-3.239z" fill="#5BC22A"/></svg>