<svg width="103" height="103" fill="none" xmlns="http://www.w3.org/2000/svg"><g clip-path="url(#clip0)"><path d="M101.012 31.607L79.27 24.259a1.509 1.509 0 00-.966 2.86l21.535 7.277L89.7 39.338a4.579 4.579 0 00-1.405-.636L57.89 30.757c-.966-4.972-7.088-7.06-10.849-3.52a6.532 6.532 0 00-2.047 4.738v.033c.01 2.104 1.751 3.815 3.881 3.815h5.25c1.356 0 2.711-.707 3.414-2.039l28.356 7.411-31.637 15.424a6.264 6.264 0 01-5.517 0L3.162 34.396 49.484 18.74a6.32 6.32 0 014.031 0l18.086 6.113a1.509 1.509 0 10.966-2.86l-18.085-6.112a9.366 9.366 0 00-5.964 0L1.988 31.607c-2.473.836-2.696 4.26-.346 5.405l23.88 11.643c-1.314 6.246-3.32 12.97-5.5 18.938a5.966 5.966 0 001.913 6.757c6.892 5.416 15.034 9.6 23.38 12.29a20.28 20.28 0 0012.369 0c8.348-2.69 16.492-6.877 23.38-12.29a5.965 5.965 0 001.913-6.757c-2.134-5.836-4.168-12.604-5.5-18.938L88.71 43.18v22.71a3.727 3.727 0 00-3.438 3.71v4.396c0 .654.284 1.24.732 1.65l-.56 8.474a2.875 2.875 0 002.867 3.062h3.817a2.875 2.875 0 002.866-3.063l-.56-8.474c.449-.409.732-.995.732-1.649v-4.397a3.727 3.727 0 00-3.438-3.71V43.146c0-.464-.073-.913-.203-1.34l9.833-4.793c2.347-1.145 2.131-4.569-.346-5.406zm-46.887 1.198h-5.25c-.466 0-.861-.373-.864-.805v-.026c0-.972.39-1.874 1.098-2.541 2.173-2.045 5.734-.573 5.875 2.368.034.705-.42 1.004-.859 1.004zm24.319 30.91c-8.153 6.38-19.722 10.944-23.707 11.704a1.509 1.509 0 10.565 2.964c4.169-.795 15.59-5.233 24.163-11.65a151 151 0 00.677 1.896 2.956 2.956 0 01-.943 3.348c-8.126 6.386-16.688 9.937-22.44 11.79a17.265 17.265 0 01-10.518 0c-5.753-1.854-14.315-5.404-22.441-11.79a2.955 2.955 0 01-.943-3.348l.026-.073c.22-.6.463-1.283.651-1.823 8.371 6.263 19.76 10.81 24.161 11.65a1.509 1.509 0 10.566-2.964c-3.762-.717-15.37-5.185-23.706-11.705 1.226-3.747 2.646-8.563 3.762-13.696l19.102 9.313a9.255 9.255 0 008.162 0l19.1-9.313c1.117 5.133 2.537 9.949 3.763 13.696zm10.021 20.448l.525-7.934h2.458l.525 7.934h-3.508zm3.683-14.565v3.613H88.29v-3.613c0-.383.323-.706.706-.706h2.446c.383 0 .706.323.706.706z" fill="#5BC22A"/></g><defs><clipPath id="clip0"><path fill="#fff" d="M0 0h103v103H0z"/></clipPath></defs></svg>