<svg width="118" height="118" fill="none" xmlns="http://www.w3.org/2000/svg"><path d="M96.895 90.303a15.796 15.796 0 01-5.787 1.713 1.627 1.627 0 00-1.445 1.862c.093.615.137 1.12.137 1.593 0 6.77-6.432 12.277-14.337 12.277-5.759 0-10.94-2.936-13.2-7.481a2.947 2.947 0 00-1.137-1.222V78.5l.373-.013c3.178-.113 7.13-.255 9.332 1.87 1.133 1.093 1.793 2.8 1.973 5.078a4.886 4.886 0 00-3.204 4.58c0 2.69 2.19 4.878 4.882 4.878a4.886 4.886 0 004.883-4.877 4.885 4.885 0 00-3.302-4.614c-.215-3.205-1.213-5.686-2.974-7.386-3.196-3.083-8.114-2.907-11.705-2.78l-.257.01V65.024c16.586.034 24.958.713 25.683 9.65a4.886 4.886 0 00-3.204 4.58c0 2.69 2.19 4.878 4.882 4.878a4.886 4.886 0 004.883-4.878 4.885 4.885 0 00-3.305-4.614c-.4-5.764-3.415-9.442-9.186-11.221-5.005-1.544-11.84-1.642-19.753-1.648v-10.16c7.913-.005 14.748-.103 19.753-1.647 5.77-1.779 8.785-5.457 9.186-11.221a4.885 4.885 0 003.305-4.615 4.885 4.885 0 00-4.883-4.877 4.885 4.885 0 00-4.882 4.877c0 2.1 1.336 3.896 3.204 4.58-.725 8.938-9.097 9.617-25.683 9.651v-9.9l.257.01c.76.027 1.581.056 2.432.056 3.166 0 6.754-.405 9.273-2.836 1.761-1.7 2.759-4.18 2.974-7.385a4.886 4.886 0 003.302-4.614c0-2.69-2.19-4.877-4.883-4.877A4.885 4.885 0 0069.6 23.69c0 2.1 1.336 3.895 3.204 4.58-.18 2.28-.84 3.986-1.973 5.079-2.202 2.124-6.156 1.982-9.331 1.87l-.374-.013V28.16a1.626 1.626 0 10-3.252 0v70.885c-.483.287-.88.705-1.137 1.222-2.26 4.544-7.44 7.48-13.2 7.48-7.905 0-14.336-5.507-14.336-12.277 0-.472.043-.978.137-1.593.004-.026.399-2.721 2.252-4.509a1.626 1.626 0 10-2.258-2.34c-1.596 1.54-2.423 3.45-2.835 4.781-3.786-.717-7.154-2.758-9.19-5.627a1.627 1.627 0 00-2.652 1.882c2.571 3.622 6.63 6.105 11.303 6.96-.005.15-.009.3-.009.447 0 8.562 7.89 15.529 17.589 15.529 6.862 0 13.088-3.52 15.963-8.995C62.375 107.48 68.6 111 75.463 111c9.698 0 17.589-6.966 17.589-15.529 0-.147-.003-.296-.01-.447a18.843 18.843 0 005.362-1.84 1.626 1.626 0 00-1.509-2.88zm-22.413-1.912c.899 0 1.63.729 1.63 1.625a1.63 1.63 0 01-3.26 0 1.63 1.63 0 011.63-1.625zm14.006-10.762c.899 0 1.63.73 1.63 1.625a1.63 1.63 0 01-3.26 0 1.63 1.63 0 011.63-1.625zm0-45.126c.899 0 1.63.73 1.63 1.625a1.63 1.63 0 01-3.26 0 1.63 1.63 0 011.63-1.625zM74.482 22.064c.899 0 1.63.73 1.63 1.626a1.63 1.63 0 01-3.26 0 1.63 1.63 0 011.63-1.626zM15.233 79.83c0-2.94 1.236-5.87 3.392-8.038a1.626 1.626 0 00-.786-2.73c-6.233-1.448-10.587-6.31-10.587-11.824 0-3.43 1.598-6.69 4.498-9.178a1.624 1.624 0 00.073-2.402c-1.66-1.609-2.575-3.668-2.575-5.799 0-4.777 4.401-8.636 10.02-8.785.025 0 2.505.04 4.248 1.582a1.622 1.622 0 002.295-.14c.595-.673.532-1.7-.14-2.296-1.874-1.657-4.2-2.168-5.484-2.327a7.665 7.665 0 01-.963-3.675c0-2.686 1.421-5.193 3.898-6.878a1.626 1.626 0 10-1.828-2.689c-3.383 2.3-5.322 5.787-5.322 9.568 0 1.319.247 2.626.724 3.869-6.166 1.167-10.7 5.974-10.7 11.771 0 2.476.851 4.865 2.425 6.872C5.558 49.683 4 53.36 4 57.238c0 6.264 4.273 11.839 10.656 14.25-1.72 2.462-2.675 5.393-2.675 8.342a1.626 1.626 0 103.252 0z" fill="#5BC22A"/><path d="M114.997 57.238c0-3.878-1.558-7.555-4.421-10.507 1.574-2.008 2.426-4.396 2.426-6.872 0-5.797-4.535-10.605-10.701-11.771.477-1.243.724-2.55.724-3.87 0-6.646-6.1-12.053-13.598-12.053-.15 0-.31.004-.478.01-.416-3.067-2.016-5.93-4.6-8.175C81.442 1.47 77.655.05 73.687.002A14.428 14.428 0 0073.469 0c-5.911 0-11.344 2.977-13.972 7.648C56.87 2.977 51.437 0 45.525 0c-.071 0-.144 0-.216.002C41.34.05 37.554 1.47 34.645 4c-2.583 2.245-4.183 5.107-4.6 8.175a13.28 13.28 0 00-.478-.01 1.626 1.626 0 100 3.252c.497 0 1.19.05 1.807.132a1.625 1.625 0 001.834-1.74l-.01-.11-.008-.073c.1-5.543 5.667-10.293 12.159-10.373 4.904-.05 9.386 2.367 11.422 6.185.256.482.64.873 1.1 1.148v10.068a1.626 1.626 0 103.252 0V10.586a2.953 2.953 0 001.102-1.148c2.01-3.77 6.41-6.186 11.242-6.186l.179.001c6.492.08 12.06 4.83 12.158 10.358-.026-.019-.046 3.26-1.794 5.349a1.626 1.626 0 102.494 2.086c1.514-1.81 2.13-4.06 2.38-5.613.196-.01.38-.016.543-.016 5.705 0 10.346 3.948 10.346 8.801 0 1.506-.467 3.002-1.352 4.327a1.625 1.625 0 001.31 2.528c5.618.15 10.019 4.01 10.019 8.786 0 2.13-.915 4.19-2.575 5.799-.017.017-1.756 1.748-4.024 1.928a1.626 1.626 0 00.258 3.242c2.06-.164 3.753-1.086 4.822-1.842 2.275 2.346 3.514 5.232 3.514 8.252 0 5.514-4.353 10.376-10.587 11.824a1.626 1.626 0 00-.785 2.73c2.155 2.168 3.391 5.098 3.391 8.038 0 2.057-.608 4.092-1.757 5.885a1.625 1.625 0 102.738 1.755c1.486-2.317 2.271-4.96 2.271-7.64 0-2.948-.955-5.88-2.675-8.342 6.384-2.41 10.656-7.985 10.656-14.25zM22.37 55.627a1.626 1.626 0 003.246.183c.005-.082.554-8.186 8.755-10.18a1.626 1.626 0 00-.768-3.16c-5.497 1.336-8.264 4.843-9.618 7.55-1.448 2.897-1.61 5.498-1.615 5.607z" fill="#5BC22A"/><path d="M47.544 18.021a1.63 1.63 0 00-1.771 1.466c-.482 5.104-5.766 7.058-5.998 7.141a1.626 1.626 0 001.08 3.067c.305-.107 7.476-2.7 8.155-9.902a1.626 1.626 0 00-1.466-1.772zm-1.31 72.457a1.626 1.626 0 001.397-2.936c-6.257-2.978-5.721-10.056-5.695-10.362a1.626 1.626 0 00-3.239-.299c-.036.392-.8 9.63 7.537 13.597zm-3.853-30.18a1.626 1.626 0 101.397 2.936c5.264-2.504 4.782-8.322 4.76-8.569a1.626 1.626 0 00-3.238.303c.003.038.315 3.791-2.919 5.33zm38.654-3.445a1.626 1.626 0 103.252 0 1.626 1.626 0 00-3.252 0zm12.681 1.626a1.626 1.626 0 100-3.252 1.626 1.626 0 000 3.252zm-20.86 43.142a1.626 1.626 0 103.252 0 1.626 1.626 0 00-3.252 0zm3.252-89.536a1.626 1.626 0 10-3.252 0 1.626 1.626 0 003.252 0z" fill="#5BC22A"/></svg>