<svg width="93" height="93" fill="none" xmlns="http://www.w3.org/2000/svg"><path d="M46.96 12.897h-.136c-1 0-1.813.81-1.816 1.811v.005c0 1 .81 1.814 1.811 1.816h.137c1 0 1.814-.809 1.816-1.81v-.005c0-1.001-.81-1.814-1.811-1.817z" fill="#5BC22A"/><path d="M91.073 24.178c-1.193-4.535-4.71-8.106-9.18-9.32-4.61-1.255-17.46-1.718-27.428-1.884a1.817 1.817 0 00-.06 3.633c13.796.23 23.22.854 26.534 1.756 3.22.875 5.758 3.457 6.62 6.74 1.786 6.772 1.808 21.252 1.808 21.397 0 .145-.022 14.625-1.807 21.398-.864 3.282-3.4 5.864-6.622 6.739-6.657 1.812-34.161 1.834-34.438 1.834-.277 0-27.781-.022-34.44-1.835-3.22-.874-5.757-3.456-6.62-6.74-1.785-6.771-1.807-21.25-1.807-21.396 0-.145.022-14.625 1.807-21.398.863-3.282 3.4-5.864 6.622-6.739 3.387-.922 13.089-1.55 27.319-1.77a1.816 1.816 0 001.788-1.843 1.822 1.822 0 00-1.844-1.789c-10.276.158-23.512.616-28.216 1.897-4.471 1.214-7.99 4.785-9.182 9.32C.022 31.403 0 45.886 0 46.5c0 .613.022 15.096 1.927 22.322 1.193 4.534 4.71 8.106 9.18 9.32 7.122 1.94 34.242 1.962 35.393 1.962 1.15 0 28.27-.023 35.391-1.962 4.471-1.214 7.99-4.785 9.182-9.32C92.978 61.597 93 47.114 93 46.5c0-.613-.022-15.096-1.927-22.322z" fill="#5BC22A"/><path d="M10.535 41.69a1.816 1.816 0 00-1.816 1.817V58.31a1.816 1.816 0 103.633 0V43.507a1.816 1.816 0 00-1.817-1.817zm0-8.264a1.816 1.816 0 00-1.816 1.816v.022a1.816 1.816 0 103.633 0v-.022a1.816 1.816 0 00-1.817-1.816zm50.694 11.78L38.705 32.128a1.816 1.816 0 00-2.728 1.57v26.157a1.816 1.816 0 002.728 1.57L61.23 48.347a1.816 1.816 0 000-3.141zm-21.62 11.493V36.853l17.09 9.923-17.09 9.923z" fill="#5BC22A"/></svg>