<svg width="119" height="119" fill="none" xmlns="http://www.w3.org/2000/svg"><g clip-path="url(#clip0)" fill="#5BC22A"><path d="M118.427 84.29c-3.559-3.422-6.653-7.766-9.208-12.924a39.436 39.436 0 004.547-6.36 1.741 1.741 0 00-3.019-1.734 36.017 36.017 0 01-4.879 6.609 1.74 1.74 0 00-.301 1.93c2.113 4.483 4.609 8.432 7.448 11.788-4.279-.39-11.413-1.502-19.284-4.662a1.742 1.742 0 00-1.271-.01 35.64 35.64 0 01-9.71 2.222c-2.29.275-2.01 3.583.295 3.47a39.122 39.122 0 0010.018-2.2c11.802 4.607 21.694 4.871 23.801 4.871.221 0 .357-.003.4-.004a1.743 1.743 0 001.163-2.995zM87.175 10.446c20.445 4.051 33.38 26.68 26.473 46.36a1.741 1.741 0 003.304 1.101c7.512-21.87-6.422-46.237-29.05-50.867a1.74 1.74 0 10-.727 3.406zm-7.505-4.27c-14.146 0-27.262 7.659-34.23 19.987a1.741 1.741 0 103.032 1.713C54.822 16.64 66.778 9.66 79.671 9.66c2.3-.078 2.307-3.403 0-3.483z"/><path d="M64.173 40.512a1.741 1.741 0 00-2.198 2.701c25.25 20.41 11.878 61.776-20.543 63.546a1.741 1.741 0 00.196 3.477c35.591-1.948 50.239-47.339 22.545-69.724zm-30.388 65.869a35.725 35.725 0 01-7.187-1.916 1.742 1.742 0 00-1.27.01c-7.873 3.159-15.007 4.272-19.285 4.661 2.838-3.356 5.334-7.305 7.448-11.788a1.742 1.742 0 00-.301-1.93c-26.84-29.906 6.8-74.045 42.758-56.173 2.08.997 3.617-1.95 1.612-3.087C18.699 16.784-18.194 63.793 9.838 96.903c-2.554 5.158-5.648 9.502-9.207 12.925a1.742 1.742 0 001.163 2.995c2.7-.01 11.954-.158 24.2-4.867a39.186 39.186 0 007.25 1.865 1.741 1.741 0 10.54-3.44z"/><path d="M64.809 71.612a1.741 1.741 0 00-1.651-1.827c-23.62-1.19-45.748-.012-45.969 0a1.741 1.741 0 00.19 3.478c.22-.013 22.173-1.181 45.603 0 .965.05 1.778-.69 1.827-1.651zM63.16 59.338c-8.295-.418-17.265-.593-26.66-.52-2.306.095-2.276 3.435.027 3.483 9.329-.073 18.23.1 26.457.515a1.74 1.74 0 10.175-3.478zm-45.877 3.481l.096-.003c.034-.002 3.422-.185 8.883-.335 2.303-.144 2.209-3.46-.095-3.48-5.508.15-8.943.336-8.978.338a1.741 1.741 0 00.094 3.48zm-.09 17.414a1.741 1.741 0 10.19 3.477c.176-.01 17.827-.952 38.304-.299a1.741 1.741 0 00.11-3.48c-20.633-.659-38.426.292-38.604.302z"/></g><defs><clipPath id="clip0"><path fill="#fff" d="M0 0h119v119H0z"/></clipPath></defs></svg>