<svg width="259" height="70" fill="none" xmlns="http://www.w3.org/2000/svg"><g filter="url(#filter0_d)"><path d="M13.815 5.68A7 7 0 0120.69 0h226.78c4.414 0 7.726 4.036 6.865 8.365l-9.546 48A7 7 0 01237.924 62H11.472c-4.395 0-7.703-4.004-6.874-8.32l9.217-48z" fill="#464545"/></g><path d="M56.706 39.184c-1.61 0-3.067-.353-4.37-1.058a8.001 8.001 0 01-3.036-2.944c-.736-1.257-1.104-2.668-1.104-4.232s.368-2.967 1.104-4.209a7.743 7.743 0 013.059-2.944c1.303-.72 2.76-1.081 4.37-1.081 1.257 0 2.407.215 3.45.644a6.95 6.95 0 012.668 1.863l-1.495 1.449c-1.211-1.273-2.722-1.909-4.531-1.909-1.196 0-2.277.268-3.243.805a5.896 5.896 0 00-2.277 2.231c-.537.935-.805 1.986-.805 3.151 0 1.165.268 2.223.805 3.174a5.946 5.946 0 002.277 2.208c.966.537 2.047.805 3.243.805 1.794 0 3.304-.644 4.531-1.932l1.495 1.449a7.135 7.135 0 01-2.691 1.886c-1.043.43-2.193.644-3.45.644zm13.132-12.489c1.686 0 2.974.414 3.864 1.242.904.828 1.357 2.062 1.357 3.703V39h-2.093v-1.61c-.368.567-.897 1.004-1.587 1.311-.675.291-1.48.437-2.415.437-1.365 0-2.461-.33-3.29-.989-.812-.66-1.218-1.526-1.218-2.599 0-1.073.39-1.932 1.173-2.576.782-.66 2.024-.989 3.726-.989h3.496v-.437c0-.95-.276-1.679-.828-2.185-.552-.506-1.365-.759-2.438-.759a6.28 6.28 0 00-2.116.368c-.69.23-1.273.544-1.748.943l-.92-1.656c.628-.506 1.38-.89 2.254-1.15a9.189 9.189 0 012.783-.414zm-.506 10.741c.843 0 1.571-.184 2.185-.552a3.285 3.285 0 001.334-1.61v-1.702h-3.404c-1.871 0-2.806.629-2.806 1.886 0 .613.237 1.096.713 1.449.475.353 1.134.529 1.978.529zm18.788-8.694h-4.463V39H81.45V28.742h-4.463V26.81H88.12v1.932zm7.892 2.208c1.549.015 2.73.368 3.542 1.058.813.69 1.219 1.664 1.219 2.921 0 1.319-.444 2.338-1.334 3.059-.874.705-2.131 1.05-3.772 1.035L90.377 39V26.81h2.208v4.117l3.427.023zm-.529 6.394c.997.015 1.748-.184 2.254-.598.522-.414.782-1.027.782-1.84 0-.797-.253-1.38-.759-1.748-.49-.368-1.25-.56-2.277-.575l-2.898-.046v4.784l2.898.023zm17.023-10.534V39h-1.978v-3.864h-3.795L104.065 39h-2.369l2.967-4.163c-.92-.276-1.626-.728-2.116-1.357-.491-.644-.736-1.441-.736-2.392 0-1.395.475-2.453 1.426-3.174.95-.736 2.261-1.104 3.933-1.104h5.336zm-8.441 4.347c0 .813.253 1.418.759 1.817.521.383 1.295.575 2.323.575h3.381v-4.807h-3.289c-2.116 0-3.174.805-3.174 2.415zm30.886 5.842V39h-11.684V22.9h11.362v2.001h-9.062v4.945h8.073v1.955h-8.073v5.198h9.384zm8.466 2.139c-1.212 0-2.3-.268-3.266-.805a5.946 5.946 0 01-2.277-2.208c-.537-.95-.805-2.024-.805-3.22 0-1.196.268-2.262.805-3.197a5.734 5.734 0 012.277-2.208c.966-.537 2.054-.805 3.266-.805 1.211 0 2.292.268 3.243.805a5.581 5.581 0 012.254 2.208c.552.935.828 2.001.828 3.197 0 1.196-.276 2.27-.828 3.22a5.783 5.783 0 01-2.254 2.208c-.951.537-2.032.805-3.243.805zm0-1.932c.782 0 1.479-.176 2.093-.529a3.899 3.899 0 001.472-1.518c.352-.66.529-1.41.529-2.254 0-.843-.177-1.587-.529-2.231a3.704 3.704 0 00-1.472-1.518c-.614-.353-1.311-.529-2.093-.529s-1.488.176-2.116.529a3.893 3.893 0 00-1.472 1.518c-.353.644-.529 1.388-.529 2.231s.176 1.595.529 2.254a4.11 4.11 0 001.472 1.518c.628.353 1.334.529 2.116.529zm9.885-15.41c.43 0 .782.153 1.058.46.292.291.437.66.437 1.104 0 .23-.023.46-.069.69a7.429 7.429 0 01-.299.943l-1.104 3.22h-1.449l.851-3.427a1.538 1.538 0 01-.713-.529 1.62 1.62 0 01-.253-.897c0-.46.146-.836.437-1.127.292-.291.66-.437 1.104-.437zm16.765 3.105h-5.52V39h-2.254V24.901h-5.497V22.9h13.271v2.001zM179.344 39l-3.519-4.669L172.26 39h-2.461l4.807-6.233-4.577-5.957h2.461l3.358 4.393 3.335-4.393h2.415l-4.6 5.957L181.851 39h-2.507zm8.953-12.305c1.686 0 2.974.414 3.864 1.242.904.828 1.357 2.062 1.357 3.703V39h-2.093v-1.61c-.368.567-.897 1.004-1.587 1.311-.675.291-1.48.437-2.415.437-1.365 0-2.461-.33-3.289-.989-.813-.66-1.219-1.526-1.219-2.599 0-1.073.391-1.932 1.173-2.576.782-.66 2.024-.989 3.726-.989h3.496v-.437c0-.95-.276-1.679-.828-2.185-.552-.506-1.365-.759-2.438-.759a6.28 6.28 0 00-2.116.368c-.69.23-1.273.544-1.748.943l-.92-1.656c.628-.506 1.38-.89 2.254-1.15a9.186 9.186 0 012.783-.414zm-.506 10.741c.843 0 1.571-.184 2.185-.552a3.287 3.287 0 001.334-1.61v-1.702h-3.404c-1.871 0-2.806.629-2.806 1.886 0 .613.237 1.096.713 1.449.475.353 1.134.529 1.978.529zm9.702-10.626h2.208v5.175h6.946V26.81h2.208V39h-2.208v-5.106h-6.946V39h-2.208V26.81z" fill="#fff"/><defs><filter id="filter0_d" x=".471" y="0" width="258.003" height="70" filterUnits="userSpaceOnUse" color-interpolation-filters="sRGB"><feFlood flood-opacity="0" result="BackgroundImageFix"/><feColorMatrix in="SourceAlpha" values="0 0 0 0 0 0 0 0 0 0 0 0 0 0 0 0 0 0 127 0"/><feOffset dy="4"/><feGaussianBlur stdDeviation="2"/><feColorMatrix values="0 0 0 0 0 0 0 0 0 0 0 0 0 0 0 0 0 0 0.25 0"/><feBlend in2="BackgroundImageFix" result="effect1_dropShadow"/><feBlend in="SourceGraphic" in2="effect1_dropShadow" result="shape"/></filter></defs></svg>