<svg width="103" height="95" viewBox="0 0 103 95" fill="none" xmlns="http://www.w3.org/2000/svg">
<path d="M31.8894 31.4318C31.985 36.5335 34.0493 41.3391 37.7024 44.963C41.3554 48.5868 46.1772 50.6131 51.2799 50.669C53.6587 50.6954 55.9994 50.2981 58.2168 49.489C58.9998 49.2038 59.4029 48.3378 59.1177 47.555C58.8324 46.7723 57.9664 46.3686 57.1837 46.6542C55.3076 47.338 53.338 47.6761 51.3129 47.6516C42.4324 47.5544 35.0724 40.2528 34.9059 31.3632C34.7854 26.8461 36.6194 22.4038 39.937 19.1753C43.2557 15.9461 47.7483 14.2358 52.2731 14.4782C60.9227 14.87 67.8701 21.9624 68.0895 30.6247C68.1408 32.644 67.8345 34.6237 67.1795 36.5082C66.7444 37.7596 65.5507 38.6003 64.2087 38.6003C64.2085 38.6003 64.2083 38.6003 64.2083 38.6003C62.4692 38.6003 61.0545 37.1855 61.0545 35.4462V23.0101C61.0545 22.1767 60.3791 21.5014 59.5457 21.5014C58.7123 21.5014 58.037 22.1767 58.037 23.0101V24.0976C56.3263 22.4895 54.0266 21.5014 51.4992 21.5014C46.2305 21.5014 41.944 25.788 41.944 31.0566C41.944 36.3253 46.2305 40.6119 51.4992 40.6119C54.2276 40.6119 56.6906 39.4604 58.4335 37.6204C59.3148 39.9537 61.5702 41.6179 64.2081 41.6179H64.2087C66.8339 41.6179 69.1732 39.9625 70.0295 37.4991C70.8046 35.2704 71.1665 32.9319 71.1064 30.5481C70.8469 20.3099 62.6344 11.9272 52.4229 11.4645C47.0724 11.1753 41.7535 13.1976 37.833 17.0128C33.9131 20.8269 31.747 26.0869 31.8894 31.4318ZM51.4994 37.5944C47.8944 37.5944 44.9616 34.6617 44.9616 31.0566C44.9616 27.4516 47.8944 24.5188 51.4994 24.5188C55.1045 24.5188 58.0372 27.4516 58.0372 31.0566C58.0372 34.6617 55.1045 37.5944 51.4994 37.5944Z" fill="#5BC22A"/>
<path d="M102.416 36.0558L60.1154 3.00311C55.2227 -0.819599 48.3725 -0.839917 43.4573 2.95442L0.590597 36.0478C0.222871 36.3292 -0.000621766 36.7816 0.000182887 37.2447V50.5215C0.000182887 51.3549 0.675488 52.0302 1.50891 52.0302C2.34233 52.0302 3.01763 51.3549 3.01763 50.5215V39.8156L40.9574 61.0089L3.01763 90.2985V57.5622C3.01763 56.7288 2.34233 56.0535 1.50891 56.0535C0.675488 56.0535 0.000182887 56.7288 0.000182887 57.5622V93.3693C-0.0130939 94.1791 0.69842 94.8921 1.50891 94.878H101.487C102.292 94.8888 103.013 94.1785 102.996 93.3693V37.4229C103.032 36.9051 102.834 36.3757 102.416 36.0558ZM5.93208 91.8605L45.3013 61.4674C49.1242 58.5163 54.452 58.5316 58.2575 61.5054L58.9841 62.0731C58.9847 62.0735 77.898 76.8517 77.8994 76.853C78.5564 77.3659 79.5041 77.2498 80.0173 76.593C80.5302 75.9362 80.414 74.9882 79.7574 74.4752L62.6124 61.0787L71.8887 55.8527C72.6145 55.4438 72.8716 54.5238 72.4626 53.7976C72.0538 53.0716 71.1341 52.8154 70.4075 53.2237L60.0351 59.0673C55.1809 55.3315 48.4387 55.3068 43.5577 59.0049L4.2403 37.0419L45.3015 5.34264C49.1244 2.39157 54.4523 2.40706 58.2577 5.38065L98.9252 37.1572L76.3668 49.8661C75.641 50.2751 75.3839 51.195 75.7929 51.9212C76.2042 52.654 77.1352 52.9 77.8479 52.4951L99.9785 40.0272V90.2754L85.1469 78.6864C84.4903 78.1736 83.5423 78.2895 83.0291 78.9463C82.5161 79.6031 82.6324 80.5511 83.289 81.0641L97.1059 91.8603H5.93208V91.8605Z" fill="#5BC22A"/>
</svg>
