<svg width="103" height="103" viewBox="0 0 103 103" fill="none" xmlns="http://www.w3.org/2000/svg">
<g clip-path="url(#clip0)">
<path d="M101.012 31.607L79.2696 24.2587C78.4803 23.9932 77.6239 24.4157 77.3569 25.2051C77.0901 25.9946 77.5138 26.851 78.3033 27.1178L99.8386 34.396L89.7015 39.3381C89.2807 39.0542 88.8083 38.8363 88.2961 38.7025L57.8902 30.756C56.9237 25.7837 50.8017 23.6968 47.0413 27.2355C45.7399 28.4603 44.9935 30.1874 44.9935 31.9741V32.0071C45.0042 34.1109 46.7454 35.8224 48.8753 35.8224H54.125C55.4806 35.8224 56.8364 35.115 57.5395 33.7834L85.8949 41.1942C76.9354 45.5623 56.8223 55.3682 54.2584 56.6183C52.4486 57.5005 50.4321 57.4426 48.7415 56.6183L3.16117 34.396L49.4845 18.7403C50.784 18.3009 52.2158 18.3009 53.5152 18.7403L71.601 24.8528C72.3907 25.1194 73.2467 24.6963 73.5137 23.9065C73.7805 23.117 73.3568 22.2606 72.5673 21.9938L54.4815 15.8813C52.5586 15.2316 50.4411 15.2316 48.5182 15.8813L1.98726 31.607C-0.484884 32.4431 -0.707996 35.867 1.64163 37.0124L25.5217 48.6549C24.208 54.9006 22.2022 61.6248 20.0222 67.5931C19.1297 70.0339 19.8986 72.749 21.935 74.3497C28.8266 79.7661 36.9693 83.9503 45.315 86.64C49.2369 87.9036 53.61 87.9523 57.684 86.64C66.0323 83.9491 74.1758 79.7633 81.0637 74.3497C83.1075 72.7428 83.866 70.0264 82.9766 67.5931C80.8426 61.7572 78.8095 54.9892 77.4772 48.6555L88.7101 43.1791V65.8887C86.7902 66.0357 85.2721 67.6414 85.2721 69.5983V73.9954C85.2721 74.6486 85.5557 75.2355 86.0044 75.6443L85.4439 84.1185C85.3344 85.7741 86.6508 87.1812 88.3106 87.1812H92.1278C93.7868 87.1812 95.1037 85.7747 94.9943 84.1185L94.434 75.6443C94.8826 75.2355 95.1663 74.6488 95.1663 73.9954V69.5981C95.1663 67.6412 93.648 66.0355 91.7281 65.8885V43.1463C91.7281 42.6825 91.655 42.2333 91.5247 41.8068L101.358 37.0126C103.705 35.8685 103.489 32.4443 101.012 31.607ZM54.125 32.8046H48.8753C48.4092 32.8046 48.0135 32.4324 48.0112 31.9995V31.9741C48.0112 31.002 48.4011 30.0997 49.1095 29.433C51.2825 27.388 54.8434 28.86 54.9845 31.8013C55.0181 32.5057 54.5646 32.8046 54.125 32.8046ZM78.4435 63.7143C70.2911 70.0946 58.7219 74.6589 54.7368 75.4186C53.9182 75.5747 53.3812 76.3649 53.5374 77.1833C53.6935 78.0022 54.4859 78.5391 55.3021 78.3828C59.4705 77.5879 70.8911 73.1496 79.4645 66.7337C79.6753 67.335 79.9196 68.0196 80.1423 68.629C80.5849 69.8401 80.2057 71.1852 79.199 71.9769C71.0731 78.3631 62.5106 81.9136 56.7583 83.7671C53.3225 84.8746 49.5907 84.8472 46.2406 83.7671C40.4884 81.9134 31.9258 78.3631 23.8 71.9769C22.7935 71.1856 22.4136 69.8407 22.8569 68.6288C22.8657 68.6047 22.8744 68.5801 22.8832 68.556C23.1025 67.9552 23.3455 67.2734 23.5344 66.7332C31.9053 72.9957 43.2947 77.5439 47.6954 78.3834C48.515 78.5391 49.3043 78.0026 49.4604 77.1841C49.6165 76.3655 49.0795 75.5753 48.2611 75.4192C44.499 74.7019 32.8901 70.2342 24.5554 63.7141C25.7809 59.9666 27.2008 55.1507 28.317 50.0177L47.419 59.3305C49.9623 60.5706 52.9382 60.6191 55.581 59.3305L74.6818 50.0181C75.7979 55.1509 77.2179 59.9668 78.4435 63.7143ZM88.4651 84.1632L88.99 76.2287H91.448L91.9727 84.1632H88.4651ZM92.1483 69.5979V73.2108H88.2898V69.5979C88.2898 69.215 88.6131 68.8916 88.9962 68.8916H91.4418C91.8246 68.8918 92.1483 69.215 92.1483 69.5979Z" fill="#5BC22A"/>
</g>
<defs>
<clipPath id="clip0">
<rect width="103" height="103" fill="white"/>
</clipPath>
</defs>
</svg>
