<svg width="93" height="93" viewBox="0 0 93 93" fill="none" xmlns="http://www.w3.org/2000/svg">
<path d="M46.9608 12.8971L46.8293 12.8967C46.8275 12.8967 46.826 12.8967 46.8242 12.8967C45.8234 12.8967 45.0105 13.7067 45.0078 14.7082C45.0078 14.7097 45.0078 14.7111 45.0078 14.7126C45.0074 15.7138 45.8176 16.5268 46.8193 16.5295L46.951 16.5299C46.9526 16.5299 46.9543 16.5299 46.9559 16.5299C47.9567 16.5299 48.7696 15.72 48.7723 14.7184C48.7723 14.7169 48.7723 14.7155 48.7723 14.714C48.7727 13.7128 47.9626 12.8998 46.9608 12.8971Z" fill="#5BC22A"/>
<path d="M91.073 24.178C89.8803 19.6433 86.3621 16.0721 81.8925 14.858C77.2834 13.6027 64.4332 13.1404 54.4648 12.9738C53.4676 12.9602 52.6349 13.7567 52.6182 14.7597C52.6015 15.7628 53.4011 16.5896 54.4041 16.6063C68.2015 16.837 77.6247 17.4609 80.9391 18.3635C84.1596 19.2383 86.6965 21.8203 87.5599 25.1031C89.3454 31.8752 89.3672 46.3545 89.3672 46.4998C89.3672 46.6453 89.3454 61.1246 87.5597 67.8978C86.6965 71.1795 84.1596 73.7615 80.938 74.6367C74.2812 76.4494 46.777 76.4707 46.5 76.4707C46.223 76.4707 18.7188 76.4493 12.0609 74.6363C8.84045 73.7615 6.30347 71.1795 5.44014 67.8967C3.65461 61.1246 3.63281 46.6453 3.63281 46.5C3.63281 46.3545 3.65461 31.8752 5.44032 25.1022C6.30347 21.8205 8.84045 19.2385 12.062 18.3633C15.4491 17.4409 25.1509 16.8126 39.3806 16.5938C40.3836 16.5785 41.1841 15.7528 41.1688 14.7497C41.1534 13.7467 40.3251 12.9528 39.3246 12.9615C29.0494 13.1193 15.8133 13.5767 11.1086 14.8578C6.63788 16.0721 3.11968 19.6435 1.92739 24.1771C0.0219786 31.4042 0 45.8869 0 46.5C0 47.113 0.0219786 61.5958 1.92703 68.8218C3.11968 73.3565 6.63788 76.9277 11.1075 78.1418C18.2293 80.0812 45.3491 80.1035 46.5 80.1035C47.6509 80.1035 74.7707 80.0812 81.8914 78.1422C86.3621 76.9279 89.8803 73.3565 91.0726 68.8229C92.978 61.5958 93 47.113 93 46.5C93 45.8869 92.978 31.4042 91.073 24.178Z" fill="#5BC22A"/>
<path d="M10.5352 41.6904C9.53196 41.6904 8.71875 42.5036 8.71875 43.5068V58.3105C8.71875 59.3137 9.53196 60.127 10.5352 60.127C11.5384 60.127 12.3516 59.3137 12.3516 58.3105V43.5068C12.3516 42.5036 11.5384 41.6904 10.5352 41.6904Z" fill="#5BC22A"/>
<path d="M10.5352 33.4258C9.53196 33.4258 8.71875 34.239 8.71875 35.2422V35.2636C8.71875 36.2668 9.53196 37.08 10.5352 37.08C11.5384 37.08 12.3516 36.2668 12.3516 35.2636V35.2422C12.3516 34.239 11.5384 33.4258 10.5352 33.4258Z" fill="#5BC22A"/>
<path d="M61.2286 45.2057L38.7052 32.1276C38.1432 31.8011 37.4499 31.7999 36.8868 32.1241C36.3237 32.4483 35.9766 33.0487 35.9766 33.6984V59.8546C35.9766 60.5045 36.3237 61.1047 36.8868 61.4289C37.1672 61.5904 37.48 61.671 37.793 61.671C38.1081 61.671 38.4233 61.5893 38.7052 61.4255L61.2286 48.3473C61.7886 48.0222 62.133 47.4239 62.133 46.7765C62.133 46.1291 61.7884 45.5308 61.2286 45.2057ZM39.6094 56.6995V36.8535L56.699 46.7765L39.6094 56.6995Z" fill="#5BC22A"/>
</svg>
