<svg width="119" height="119" viewBox="0 0 119 119" fill="none" xmlns="http://www.w3.org/2000/svg">
<g clip-path="url(#clip0)">
<path d="M118.427 84.2906C114.868 80.8679 111.774 76.524 109.219 71.3662C110.942 69.4016 112.468 67.2669 113.766 65.0062C114.245 64.1723 113.957 63.1081 113.123 62.6291C112.289 62.1504 111.225 62.4383 110.747 63.2722C109.382 65.6481 107.741 67.8717 105.868 69.8808C105.382 70.4018 105.263 71.166 105.567 71.8105C107.68 76.2942 110.176 80.2432 113.015 83.599C108.736 83.2095 101.602 82.0965 93.7305 78.9375C93.3238 78.7743 92.8699 78.7706 92.4599 78.9273C89.349 80.1173 86.0816 80.8647 82.7492 81.1486C80.4608 81.4237 80.7404 84.7324 83.0448 84.6184C86.474 84.3264 89.8407 83.5867 93.0628 82.4185C104.865 87.0261 114.757 87.2901 116.864 87.2901C117.085 87.2901 117.221 87.2873 117.264 87.2862C117.966 87.268 118.588 86.8302 118.843 86.1753C119.097 85.5208 118.933 84.7775 118.427 84.2906Z" fill="#5BC22A"/>
<path d="M87.1753 10.4461C107.62 14.4972 120.555 37.1268 113.648 56.8057C113.344 57.7179 113.837 58.7041 114.749 59.0082C115.637 59.3116 116.65 58.828 116.952 57.9073C124.464 36.0371 110.53 11.6703 87.9015 7.04032C86.9613 6.83904 86.0359 7.43964 85.8355 8.38011C85.6349 9.32058 86.2348 10.2455 87.1753 10.4461Z" fill="#5BC22A"/>
<path d="M79.6706 6.17627C65.524 6.17627 52.4078 13.8347 45.4405 26.1627C44.9674 26.9999 45.2624 28.062 46.0996 28.5352C46.9214 29.0041 47.9966 28.7211 48.4722 27.8761C54.8229 16.6392 66.7777 9.65864 79.6708 9.65864C81.9719 9.5811 81.9777 6.2559 79.6706 6.17627Z" fill="#5BC22A"/>
<path d="M64.1726 40.5122C63.426 39.9051 62.3295 40.0184 61.7231 40.7638C61.1163 41.5097 61.2289 42.6065 61.9748 43.2133C87.2248 63.6233 73.8532 104.989 41.4325 106.759C40.4726 106.813 39.7378 107.635 39.7919 108.596C39.8432 109.557 40.678 110.293 41.628 110.236C77.2192 108.288 91.8665 62.8973 64.1726 40.5122Z" fill="#5BC22A"/>
<path d="M33.785 106.381C31.3315 105.995 28.9136 105.35 26.5978 104.465C26.1878 104.308 25.7342 104.312 25.3272 104.475C17.4552 107.634 10.321 108.747 6.04301 109.136C8.88137 105.78 11.3775 101.831 13.4909 97.3478C13.7945 96.7036 13.6752 95.9393 13.1895 95.4181C-13.6493 65.5118 19.9892 21.3732 55.9477 39.245C58.0281 40.2418 59.5654 37.2951 57.56 36.1584C18.6989 16.7841 -18.1943 63.7933 9.83833 96.9035C7.28389 102.061 4.19016 106.405 0.631175 109.828C0.12507 110.315 -0.0390654 111.058 0.214915 111.713C0.469128 112.367 1.09154 112.805 1.79359 112.823C4.49312 112.813 13.7483 112.665 25.9949 107.956C28.3411 108.806 30.7767 109.433 33.2447 109.821C34.1947 109.969 35.0857 109.32 35.235 108.371C35.3841 107.421 34.7349 106.53 33.785 106.381Z" fill="#5BC22A"/>
<path d="M64.8086 71.6119C64.8571 70.6515 64.1177 69.8338 63.1575 69.7853C39.5385 68.5945 17.4101 69.7734 17.1893 69.7855C16.2291 69.838 15.4931 70.6589 15.5456 71.6189C15.5955 72.5807 16.4287 73.3175 17.379 73.2625C17.5981 73.2505 39.5521 72.0818 62.982 73.263C63.9471 73.3129 64.7601 72.5723 64.8086 71.6119Z" fill="#5BC22A"/>
<path d="M63.1597 59.3381C54.8647 58.92 45.8946 58.7454 36.4999 58.8188C34.1945 58.9128 34.2238 62.2531 36.527 62.3009C45.8556 62.2285 54.7565 62.4012 62.9842 62.8161C63.9356 62.8669 64.7649 62.1266 64.8108 61.1647C64.8596 60.2045 64.1202 59.3866 63.1597 59.3381Z" fill="#5BC22A"/>
<path d="M17.2826 62.8186C17.3147 62.8186 17.3467 62.8179 17.3792 62.816C17.4129 62.8142 20.801 62.631 26.262 62.4815C28.5653 62.3371 28.4708 59.0202 26.1668 59.0005C20.6591 59.1512 17.2236 59.3371 17.1893 59.339C16.2291 59.3914 15.4931 60.2124 15.5456 61.1723C15.5962 62.1003 16.3644 62.8186 17.2826 62.8186Z" fill="#5BC22A"/>
<path d="M17.1932 80.2327C16.233 80.2852 15.497 81.1059 15.5495 82.0661C15.5994 83.0279 16.4326 83.7648 17.3829 83.7098C17.5591 83.7003 35.2096 82.7577 55.6866 83.4112C56.6519 83.4377 57.4517 82.6876 57.4824 81.7265C57.513 80.7653 56.7587 79.9611 55.7976 79.9307C35.1636 79.2725 17.3708 80.223 17.1932 80.2327Z" fill="#5BC22A"/>
</g>
<defs>
<clipPath id="clip0">
<rect width="119" height="119" fill="white"/>
</clipPath>
</defs>
</svg>
