<svg width="118" height="118" viewBox="0 0 118 118" fill="none" xmlns="http://www.w3.org/2000/svg">
<path d="M96.8951 90.3034C95.1201 91.2332 93.1731 91.8092 91.1083 92.0159C90.665 92.0603 90.2591 92.2847 89.9857 92.6368C89.7124 92.9888 89.5957 93.4376 89.6627 93.8784C89.7564 94.4926 89.7997 94.9988 89.7997 95.4714C89.7997 102.241 83.3684 107.748 75.4631 107.748C69.7044 107.748 64.5233 104.812 62.2637 100.267C62.0065 99.7501 61.6096 99.3326 61.1263 99.0451V78.4999C61.2499 78.4955 61.3733 78.4912 61.4994 78.4868C64.6768 78.3741 68.629 78.2323 70.8306 80.3567C71.964 81.4502 72.6242 83.1567 72.8041 85.4354C70.9364 86.1205 69.6001 87.9151 69.6001 90.0157C69.6001 92.7051 71.7904 94.8932 74.4823 94.8932C77.1743 94.8932 79.3646 92.7051 79.3646 90.0157C79.3646 87.8789 77.9815 86.06 76.0632 85.4022C75.8477 82.1969 74.8503 79.7161 73.089 78.0164C69.8932 74.9327 64.9749 75.1087 61.3837 75.2368C61.2967 75.2399 61.2122 75.2429 61.1266 75.2459V65.0239C77.7128 65.0575 86.0847 65.7374 86.8097 74.674C84.9422 75.3593 83.606 77.1538 83.606 79.2543C83.606 81.9437 85.7963 84.1318 88.4883 84.1318C91.1803 84.1318 93.3706 81.9437 93.3706 79.2543C93.3706 77.1165 91.9861 75.2971 90.0664 74.64C89.6655 68.8762 86.6507 65.1976 80.8803 63.4186C75.8746 61.8754 69.0403 61.7772 61.1266 61.7711V51.6118C69.0403 51.6055 75.8746 51.5075 80.8803 49.9643C86.6507 48.1853 89.6655 44.5067 90.0664 38.7429C91.9861 38.0858 93.3706 36.2662 93.3706 34.1284C93.3706 31.439 91.1803 29.2511 88.4883 29.2511C85.7963 29.2511 83.606 31.439 83.606 34.1284C83.606 36.2289 84.9422 38.0236 86.8097 38.7089C86.0847 47.6455 77.7128 48.3254 61.1266 48.359V38.4598C61.2122 38.4628 61.2965 38.4656 61.3837 38.4689C62.1446 38.496 62.965 38.5255 63.8159 38.5255C66.9818 38.5255 70.5702 38.1196 73.089 35.6893C74.8505 33.9899 75.8477 31.5088 76.0632 28.3037C77.9815 27.6457 79.3646 25.8268 79.3646 23.69C79.3646 21.0007 77.1743 18.8127 74.4823 18.8127C71.7904 18.8127 69.6001 21.0007 69.6001 23.69C69.6001 25.7906 70.9362 27.5854 72.8041 28.2705C72.6242 30.5493 71.964 32.2557 70.8306 33.349C68.629 35.4734 64.6755 35.3314 61.4997 35.2189C61.3735 35.2143 61.2501 35.21 61.1263 35.2059V28.1613C61.1263 27.2631 60.3985 26.5353 59.5004 26.5353C58.6022 26.5353 57.8744 27.2631 57.8744 28.1613V99.0455C57.3911 99.333 56.994 99.7507 56.7368 100.268C54.4774 104.812 49.2964 107.748 43.5376 107.748C35.6323 107.748 29.201 102.241 29.201 95.4714C29.201 94.9988 29.2443 94.4926 29.338 93.8784C29.3417 93.8515 29.7367 91.1567 31.5899 89.369C32.2361 88.7457 32.2546 87.7163 31.6311 87.0701C31.0075 86.424 29.978 86.4049 29.3321 87.0289C27.7356 88.569 26.909 90.4796 26.4969 91.8103C22.7114 91.0927 19.3432 89.052 17.3066 86.1827C16.7869 85.451 15.7717 85.2785 15.0393 85.7981C14.3072 86.318 14.1349 87.333 14.6547 88.0654C17.226 91.6874 21.2853 94.1695 25.9583 95.0248C25.9525 95.1757 25.9494 95.3242 25.9494 95.4718C25.9494 104.034 33.8398 111.001 43.538 111.001C50.4001 111.001 56.6263 107.481 59.5008 102.006C62.3751 107.48 68.6011 111 75.4631 111C85.1614 111 93.0517 104.034 93.0517 95.4714C93.0517 95.3238 93.0487 95.1755 93.0428 95.0244C94.9315 94.6779 96.729 94.0616 98.4042 93.184C99.1996 92.7673 99.5066 91.7845 99.0899 90.9891C98.6732 90.1935 97.6909 89.8865 96.8951 90.3034ZM74.4821 88.3906C75.381 88.3906 76.1124 89.1197 76.1124 90.0159C76.1124 90.9124 75.3812 91.6414 74.4821 91.6414C73.5831 91.6414 72.8518 90.9124 72.8518 90.0159C72.852 89.1197 73.5833 88.3906 74.4821 88.3906ZM88.4881 77.629C89.3869 77.629 90.1184 78.3581 90.1184 79.2543C90.1184 80.1508 89.3872 80.8799 88.4881 80.8799C87.5891 80.8799 86.8578 80.1508 86.8578 79.2543C86.8578 78.3583 87.5893 77.629 88.4881 77.629ZM88.4881 32.5031C89.3869 32.5031 90.1184 33.2321 90.1184 34.1284C90.1184 35.0248 89.3872 35.7539 88.4881 35.7539C87.5891 35.7539 86.8578 35.0248 86.8578 34.1284C86.8578 33.2321 87.5893 32.5031 88.4881 32.5031ZM74.4821 22.0643C75.381 22.0643 76.1124 22.7934 76.1124 23.6896C76.1124 24.5861 75.3812 25.3151 74.4821 25.3151C73.5831 25.3151 72.8518 24.5861 72.8518 23.6896C72.852 22.7936 73.5833 22.0643 74.4821 22.0643Z" fill="#5BC22A"/>
<path d="M15.2334 79.8302C15.2334 76.8896 16.4693 73.9596 18.6245 71.7923C19.0403 71.3738 19.1973 70.7633 19.0342 70.1964C18.8712 69.6297 18.414 69.1955 17.8393 69.0621C11.6057 67.6141 7.25196 62.7518 7.25196 57.2378C7.25196 53.8081 8.84954 50.5487 11.7503 48.0601C12.0976 47.7624 12.3031 47.3323 12.3168 46.8751C12.3307 46.4181 12.1514 45.9762 11.8231 45.6582C10.1622 44.0491 9.24758 41.9898 9.24758 39.8591C9.24758 35.0824 13.649 31.2232 19.2675 31.0736C19.2929 31.0738 21.7728 31.1148 23.5157 32.6562C23.825 32.9298 24.2094 33.0642 24.5923 33.0642C25.0419 33.0642 25.4896 32.8789 25.8109 32.5155C26.4058 31.8428 26.3427 30.8152 25.6702 30.2203C23.7966 28.5633 21.4719 28.0517 20.187 27.8934C19.5578 26.739 19.2242 25.483 19.2242 24.2185C19.2242 21.5319 20.645 19.0247 23.1224 17.3397C23.8649 16.8348 24.0574 15.8234 23.5523 15.0809C23.0474 14.3384 22.0358 14.1456 21.2935 14.651C17.9115 16.951 15.972 20.4384 15.972 24.2187C15.972 25.5377 16.2189 26.845 16.6963 28.0879C10.5299 29.2547 5.99562 34.0617 5.99562 39.8595C5.99562 42.3354 6.84698 44.7238 8.42115 46.7311C5.55834 49.683 4 53.3599 4 57.2378C4 63.5024 8.27264 69.0769 14.6565 71.4881C12.9364 73.9496 11.9814 76.8814 11.9814 79.8302C11.9814 80.7284 12.7092 81.4562 13.6074 81.4562C14.5056 81.4562 15.2334 80.7282 15.2334 79.8302Z" fill="#5BC22A"/>
<path d="M114.997 57.238C114.997 53.3597 113.439 49.6828 110.576 46.7309C112.15 44.7233 113.002 42.3349 113.002 39.8593C113.002 34.0615 108.467 29.2544 102.301 28.0876C102.778 26.8447 103.025 25.5372 103.025 24.2184C103.025 17.5723 96.9252 12.1651 89.4273 12.1651C89.2777 12.1651 89.1171 12.1686 88.9493 12.1747C88.5334 9.10809 86.9326 6.24593 84.3499 3.99991C81.4409 1.4701 77.6537 0.0498634 73.6859 0.00151758C73.6137 0.000433595 73.5415 0 73.4693 0C67.5576 0 62.1254 2.97684 59.4973 7.64818C56.8693 2.97663 51.4377 0 45.5254 0C45.4536 0 45.3808 0.000433595 45.3088 0.00151758C41.3408 0.0500802 37.5535 1.4701 34.6446 3.99991C32.0623 6.2455 30.4617 9.10744 30.0454 12.1747C29.8776 12.1686 29.717 12.1651 29.5674 12.1651C28.6692 12.1651 27.9414 12.8929 27.9414 13.7911C27.9414 14.6893 28.6692 15.4171 29.5674 15.4171C30.0643 15.4171 30.7563 15.4676 31.3737 15.5489C31.8628 15.6133 32.35 15.454 32.7055 15.1164C33.0615 14.7786 33.2458 14.2984 33.2072 13.8093L33.1974 13.6983C33.1948 13.6691 33.1914 13.64 33.1903 13.6264C33.2891 8.08307 38.8572 3.33261 45.3487 3.25283C50.2527 3.20296 54.735 5.62047 56.7705 9.43806C57.0274 9.92 57.4109 10.3115 57.8716 10.586V20.6541C57.8716 21.5523 58.5994 22.28 59.4976 22.28C60.3957 22.28 61.1235 21.5523 61.1235 20.6541V10.5862C61.5842 10.312 61.9677 9.92021 62.2246 9.43827C64.2352 5.66708 68.6347 3.25196 73.4675 3.25196C73.5269 3.25196 73.5866 3.25239 73.646 3.25304C80.1375 3.33261 85.7055 8.08307 85.8044 13.6108C85.7782 13.5921 85.7582 16.8703 84.0102 18.9596C83.4339 19.6483 83.5252 20.6736 84.2137 21.2498C84.5179 21.5046 84.888 21.6288 85.2563 21.6288C85.7211 21.6288 86.1825 21.4306 86.5042 21.046C88.0183 19.2364 88.6338 16.9856 88.8844 15.4329C89.0798 15.4227 89.2647 15.4169 89.4275 15.4169C95.1321 15.4169 99.7735 19.3652 99.7735 24.2182C99.7735 25.7243 99.3059 27.2204 98.4213 28.5448C98.0922 29.0372 98.0571 29.6696 98.3294 30.1953C98.6015 30.7213 99.1381 31.0577 99.7302 31.0733C105.349 31.2229 109.75 35.0821 109.75 39.8588C109.75 41.9895 108.835 44.0489 107.175 45.658C107.158 45.6749 105.419 47.4058 103.151 47.5861C102.256 47.6573 101.588 48.4405 101.659 49.3359C101.727 50.1873 102.438 50.8329 103.278 50.8329C103.321 50.8329 103.365 50.8312 103.409 50.8279C105.469 50.6642 107.162 49.7424 108.231 48.9862C110.506 51.332 111.745 54.2184 111.745 57.238C111.745 62.7522 107.392 67.6143 101.158 69.0621C100.584 69.1954 100.126 69.6297 99.9632 70.1964C99.8002 70.7633 99.9569 71.374 100.373 71.7922C102.528 73.9598 103.764 76.8896 103.764 79.8302C103.764 81.8874 103.156 83.9222 102.007 85.7152C101.522 86.4709 101.742 87.4769 102.498 87.9614C102.77 88.1357 103.074 88.2189 103.375 88.2189C103.91 88.2189 104.434 87.9547 104.745 87.4704C106.231 85.153 107.016 82.5109 107.016 79.8304C107.016 76.8818 106.061 73.95 104.341 71.4883C110.725 69.0773 114.997 63.5028 114.997 57.238Z" fill="#5BC22A"/>
<path d="M22.3698 55.6271C22.3195 56.5238 23.0057 57.2915 23.9019 57.3418C23.9331 57.3435 23.9639 57.3444 23.9947 57.3444C24.8508 57.3444 25.568 56.6751 25.6165 55.8097C25.6211 55.7279 26.1698 47.6241 34.3713 45.6291C35.2439 45.4168 35.7791 44.5375 35.5669 43.6649C35.3546 42.7923 34.476 42.2564 33.6027 42.4693C28.1062 43.8063 25.339 47.3134 23.9854 50.0201C22.5367 52.917 22.3759 55.5179 22.3698 55.6271Z" fill="#5BC22A"/>
<path d="M47.5441 18.0213C46.6548 17.9379 45.8572 18.5932 45.7727 19.4875C45.2912 24.5905 40.0067 26.5451 39.7752 26.6282C38.9308 26.9271 38.487 27.8529 38.7833 28.6988C39.0179 29.3685 39.6462 29.7873 40.3178 29.7873C40.496 29.7873 40.6777 29.7576 40.8555 29.6954C41.1603 29.5885 48.3307 26.9956 49.0101 19.7928C49.0944 18.8987 48.4382 18.1057 47.5441 18.0213Z" fill="#5BC22A"/>
<path d="M46.2342 90.4781C46.4598 90.5854 46.6977 90.6362 46.9318 90.6362C47.5395 90.6362 48.1225 90.2938 48.4011 89.7085C48.7867 88.8977 48.4422 87.9273 47.6314 87.5416C41.374 84.5643 41.9095 77.4861 41.9359 77.1795C42.0166 76.2876 41.3606 75.4976 40.468 75.414C39.5757 75.3333 38.7811 75.9872 38.6974 76.8815C38.6612 77.2728 37.8961 86.5107 46.2342 90.4781Z" fill="#5BC22A"/>
<path d="M42.381 60.298C41.57 60.6837 41.2255 61.6538 41.6112 62.4647C41.8895 63.0502 42.4727 63.3926 43.0804 63.3926C43.3145 63.3926 43.5524 63.3418 43.7778 63.2345C49.0419 60.7301 48.5604 54.9117 48.5372 54.6654C48.4533 53.7711 47.6581 53.1172 46.7666 53.1979C45.8725 53.2818 45.2156 54.0744 45.2991 54.9685C45.3028 55.0062 45.6154 58.759 42.381 60.298Z" fill="#5BC22A"/>
<path d="M81.0352 56.853C81.0352 57.751 81.7632 58.479 82.6613 58.479C83.5595 58.479 84.2875 57.751 84.2875 56.853C84.2875 55.9551 83.5595 55.2271 82.6613 55.2271C81.7632 55.2271 81.0352 55.9551 81.0352 56.853Z" fill="#5BC22A"/>
<path d="M93.716 58.479C94.6142 58.479 95.3422 57.751 95.3422 56.853C95.3422 55.9551 94.6142 55.2271 93.716 55.2271C92.8179 55.2271 92.0898 55.9551 92.0898 56.853C92.0898 57.751 92.8181 58.479 93.716 58.479Z" fill="#5BC22A"/>
<path d="M72.8555 101.621C72.8555 102.519 73.5835 103.247 74.4817 103.247C75.3799 103.247 76.1079 102.519 76.1079 101.621C76.1079 100.723 75.3799 99.9954 74.4817 99.9954C73.5835 99.9954 72.8555 100.723 72.8555 101.621Z" fill="#5BC22A"/>
<path d="M76.1079 12.0845C76.1079 11.1865 75.3799 10.4585 74.4817 10.4585C73.5835 10.4585 72.8555 11.1865 72.8555 12.0845C72.8555 12.9825 73.5835 13.7105 74.4817 13.7105C75.3799 13.7105 76.1079 12.9825 76.1079 12.0845Z" fill="#5BC22A"/>
</svg>
