<svg width="102" height="122" viewBox="0 0 102 122" fill="none" xmlns="http://www.w3.org/2000/svg">
<path d="M6 20.5L17.5 32" stroke="#5BC22A" stroke-width="4" stroke-linecap="round" stroke-linejoin="round"/>
<path d="M6.5 101.5L18 90" stroke="#5BC22A" stroke-width="4" stroke-linecap="round" stroke-linejoin="round"/>
<path d="M50.5117 3L50.752 19.2617" stroke="#5BC22A" stroke-width="4" stroke-linecap="round" stroke-linejoin="round"/>
<path d="M51.0117 119L51.252 102.738" stroke="#5BC22A" stroke-width="4" stroke-linecap="round" stroke-linejoin="round"/>
<path d="M94.9922 20L83.8644 31.8605" stroke="#5BC22A" stroke-width="4" stroke-linecap="round" stroke-linejoin="round"/>
<path d="M95.4922 102L84.3644 90.1395" stroke="#5BC22A" stroke-width="4" stroke-linecap="round" stroke-linejoin="round"/>
<path d="M97.944 56.0654C57.8368 12.6291 20.2155 35.8732 3.68646 56.0046C2.01851 58.0361 2.09614 60.9719 3.75245 63.0129C43.0016 111.377 81.3709 85.4684 98.3487 63.1992C99.9837 61.0545 99.7735 58.0468 97.944 56.0654Z" stroke="#5BC22A" stroke-width="4" stroke-linecap="round" stroke-linejoin="round"/>
<circle cx="51" cy="60" r="8" stroke="#5BC22A" stroke-width="4"/>
<circle cx="35" cy="51" r="2" fill="#5BC22A"/>
<mask id="path-10-inside-1" fill="white">
<path d="M32.7865 57.6571C31.8803 57.4865 31.0001 58.0828 30.9033 58.9999C30.4638 63.1633 31.3012 67.3767 33.325 71.0715C35.6171 75.2562 39.2893 78.5166 43.7158 80.2972C48.1423 82.0779 53.0493 82.2686 57.6007 80.8369C62.1521 79.4052 66.0662 76.4397 68.6762 72.4456C71.2863 68.4516 72.4306 63.6761 71.9144 58.9328C71.3981 54.1896 69.2532 49.7721 65.8451 46.433C62.4369 43.094 57.9764 41.0399 53.2236 40.6209C49.0271 40.2509 44.832 41.1758 41.1955 43.2499C40.3944 43.7068 40.2017 44.7523 40.7218 45.5138C41.242 46.2753 42.2778 46.4631 43.0859 46.0188C46.0784 44.3735 49.5038 43.6455 52.9303 43.9476C56.9135 44.2988 60.6516 46.0202 63.5079 48.8186C66.3641 51.6169 68.1617 55.319 68.5943 59.2942C69.027 63.2693 68.0679 67.2715 65.8806 70.6187C63.6932 73.966 60.4129 76.4513 56.5986 77.6512C52.7842 78.851 48.6719 78.6912 44.9622 77.1989C41.2525 75.7066 38.175 72.9741 36.2541 69.4672C34.6016 66.4503 33.8929 63.0208 34.1982 59.6196C34.2806 58.701 33.6928 57.8278 32.7865 57.6571Z"/>
</mask>
<path d="M32.7865 57.6571C31.8803 57.4865 31.0001 58.0828 30.9033 58.9999C30.4638 63.1633 31.3012 67.3767 33.325 71.0715C35.6171 75.2562 39.2893 78.5166 43.7158 80.2972C48.1423 82.0779 53.0493 82.2686 57.6007 80.8369C62.1521 79.4052 66.0662 76.4397 68.6762 72.4456C71.2863 68.4516 72.4306 63.6761 71.9144 58.9328C71.3981 54.1896 69.2532 49.7721 65.8451 46.433C62.4369 43.094 57.9764 41.0399 53.2236 40.6209C49.0271 40.2509 44.832 41.1758 41.1955 43.2499C40.3944 43.7068 40.2017 44.7523 40.7218 45.5138C41.242 46.2753 42.2778 46.4631 43.0859 46.0188C46.0784 44.3735 49.5038 43.6455 52.9303 43.9476C56.9135 44.2988 60.6516 46.0202 63.5079 48.8186C66.3641 51.6169 68.1617 55.319 68.5943 59.2942C69.027 63.2693 68.0679 67.2715 65.8806 70.6187C63.6932 73.966 60.4129 76.4513 56.5986 77.6512C52.7842 78.851 48.6719 78.6912 44.9622 77.1989C41.2525 75.7066 38.175 72.9741 36.2541 69.4672C34.6016 66.4503 33.8929 63.0208 34.1982 59.6196C34.2806 58.701 33.6928 57.8278 32.7865 57.6571Z" stroke="#5BC22A" stroke-width="6" stroke-linecap="round" stroke-linejoin="round" mask="url(#path-10-inside-1)"/>
</svg>
