<svg width="116" height="116" viewBox="0 0 116 116" fill="none" xmlns="http://www.w3.org/2000/svg">
<path d="M112.035 7.91504H3.96484C1.77874 7.91504 0 9.69378 0 11.8799V25.835C0 28.032 3.39844 28.032 3.39844 25.835V11.8799C3.39844 11.5677 3.65241 11.3135 3.96484 11.3135H112.035C112.348 11.3135 112.602 11.5677 112.602 11.8799V94.7426C112.602 95.0548 112.348 95.309 112.035 95.309H90.2598V91.7733H107.35C108.289 91.7733 109.05 91.0125 109.05 90.0741V72.2801C109.05 70.0831 105.651 70.0831 105.651 72.2801V88.3749H90.2598V80.8355C90.3151 80.8403 90.3708 80.8451 90.4231 80.8498C91.8337 80.9737 93.5882 81.128 94.8037 79.9103C96.0179 78.6938 95.8643 76.9375 95.7408 75.5263C95.6078 74.0117 95.751 73.5971 96.9151 72.6294C99.9122 70.1373 99.968 67.4688 96.9151 64.9309C95.751 63.9625 95.6085 63.5484 95.7408 62.0336C96.0734 58.2325 94.298 56.3697 90.4231 56.7103C88.9108 56.843 88.5005 56.6994 87.5363 55.5351C85.0479 52.5309 82.3777 52.4753 79.8431 55.5351C78.8789 56.6992 78.4688 56.8435 76.9565 56.7103C73.1527 56.3761 71.2992 58.1614 71.6386 62.0336C71.7709 63.5486 71.6284 63.9625 70.4643 64.9309C67.4671 67.4228 67.4116 70.0917 70.4643 72.6294C71.6284 73.5978 71.7709 74.0119 71.6386 75.5267C71.2818 79.5978 73.2261 81.172 77.1192 80.8358V88.3753H10.3491V18.2474H105.651V40.7325V63.2176C105.651 65.4146 109.05 65.4146 109.05 63.2176V39.8829V16.5482C109.05 15.6098 108.289 14.849 107.35 14.849H8.64993C7.71128 14.849 6.95071 15.6098 6.95071 16.5482V90.0741C6.95071 91.0125 7.71128 91.7733 8.64993 91.7733H77.1192V95.309H3.96484C3.65241 95.309 3.39844 95.0548 3.39844 94.7426V34.4441C3.39844 32.2472 0 32.2472 0 34.4441V94.7426C0 96.9287 1.77874 98.7075 3.96484 98.7075H77.1192V106.399C77.3611 107.796 78.1665 108.309 79.535 107.94L83.6895 106.008L87.8439 107.94C88.8719 108.418 90.2598 107.662 90.2598 106.399V98.7075H112.035C114.221 98.7075 116 96.9287 116 94.7426V11.8799C116 9.69355 114.221 7.91504 112.035 7.91504ZM76.6586 77.4641C74.9575 77.6138 74.8751 77.5227 75.0237 75.8226C75.2521 73.2133 74.6519 71.6908 72.6366 70.0156C71.2578 68.869 71.258 68.6902 72.6366 67.5436C74.6519 65.8684 75.2523 64.3459 75.0237 61.7368C74.8751 60.0364 74.9575 59.9462 76.6586 60.0951C79.2681 60.3251 80.7886 59.7204 82.4599 57.7024C83.602 56.324 83.7767 56.324 84.9188 57.7024C86.5906 59.7204 88.1106 60.3242 90.7202 60.0951C92.4214 59.9453 92.5037 60.0364 92.355 61.7365C92.1266 64.3459 92.7268 65.8681 94.7421 67.5433C96.1207 68.69 96.1214 68.8692 94.7419 70.0156C92.7266 71.691 92.1262 73.2128 92.3548 75.8222C92.5041 77.5223 92.4212 77.6136 90.7204 77.4641C89.653 77.3703 88.4423 77.2638 87.3765 77.7065C86.345 78.1349 85.6198 79.0101 84.9186 79.8568C84.5882 80.2555 83.9854 80.9835 83.689 81.1138C83.3929 80.9835 82.79 80.2555 82.4597 79.8568C81.7585 79.0103 81.0335 78.1349 80.0017 77.7065C78.902 77.3712 77.7875 77.2903 76.6586 77.4641ZM84.4061 102.593C83.9516 102.382 83.4273 102.382 82.9729 102.593L80.5176 103.735V82.8123C81.3239 83.6988 82.3188 84.5219 83.6895 84.5219C85.0602 84.5219 86.055 83.6991 86.8613 82.8125V103.735L84.4061 102.593Z" fill="#5BC22A"/>
<path d="M22.0385 32.4709H80.6156C82.8126 32.4709 82.8126 29.0725 80.6156 29.0725H22.0385C19.8413 29.0725 19.8413 32.4709 22.0385 32.4709Z" fill="#5BC22A"/>
<path d="M95.6623 41.1072C95.6623 40.1688 94.9018 39.408 93.9631 39.408H22.0354C19.8385 39.408 19.8385 42.8064 22.0354 42.8064H93.9634C94.9018 42.8064 95.6623 42.0456 95.6623 41.1072Z" fill="#5BC22A"/>
<path d="M64.6006 51.4421C64.6006 50.5037 63.8401 49.7429 62.9014 49.7429H22.0354C19.8385 49.7429 19.8385 53.1414 22.0354 53.1414H62.9014C63.8398 53.1414 64.6006 52.3806 64.6006 51.4421Z" fill="#5BC22A"/>
<path d="M42.2881 75.1276C41.3617 75.1292 40.435 75.1303 39.5086 75.131C37.7262 75.1324 36.745 74.6573 36.3809 72.7673C36.0485 71.042 33.56 71.2618 33.1039 72.7673C32.902 73.434 31.8825 75.3428 30.9919 75.1867C30.52 75.104 30.3138 74.3761 30.1393 73.9991C29.7997 73.2653 29.5523 72.4875 29.3405 71.7081C28.446 68.4152 28.2675 64.9771 27.7079 61.6222C27.3834 59.6767 24.418 60.2268 24.3701 62.074C24.2179 67.958 23.2559 73.7614 21.1611 79.2766C20.3838 81.3232 23.6678 82.2081 24.4381 80.1802C25.2458 78.0537 25.887 75.8762 26.3845 73.6663C26.6514 74.4715 26.9697 75.2613 27.3583 76.0296C28.3506 77.9907 30.3745 79.1509 32.54 78.2786C33.3128 77.9673 34.0179 77.4231 34.618 76.7609C36.2257 78.6149 38.6175 78.5308 40.8489 78.5281C44.2127 78.5238 47.5765 78.5158 50.9405 78.5066C53.127 78.5004 53.1311 75.102 50.9405 75.1081C48.0564 75.1163 45.1722 75.1228 42.2881 75.1276Z" fill="#5BC22A"/>
<path d="M83.6916 75.4166C87.3513 75.4166 90.3288 72.4394 90.3288 68.7797C90.3288 65.1201 87.3513 62.1428 83.6916 62.1428C80.0322 62.1428 77.0547 65.1203 77.0547 68.7797C77.0547 72.4392 80.0319 75.4166 83.6916 75.4166ZM83.6916 65.5413C85.4774 65.5413 86.9303 66.9942 86.9303 68.7797C86.9303 70.5653 85.4774 72.0182 83.6916 72.0182C81.9058 72.0182 80.4531 70.5655 80.4531 68.7797C80.4531 66.994 81.9058 65.5413 83.6916 65.5413Z" fill="#5BC22A"/>
</svg>
