<svg width="105" height="105" viewBox="0 0 105 105" fill="none" xmlns="http://www.w3.org/2000/svg">
<mask id="path-1-inside-1" fill="white">
<path d="M93.2459 82.6606C94.0476 83.254 95.1814 83.0866 95.7469 82.2651C102.861 71.9296 106.049 59.3669 104.695 46.853C103.277 33.7396 96.9739 21.6407 87.0407 12.9628C77.1075 4.28488 64.2717 -0.336082 51.0865 0.0190306C37.9014 0.374143 25.333 5.67931 15.8813 14.8793C6.42953 24.0793 0.787111 36.4999 0.0762916 49.6707C-0.634527 62.8415 3.63835 75.7973 12.045 85.9611C20.4517 96.1249 32.3761 102.752 45.4465 104.524C57.9193 106.215 70.5634 103.367 81.0871 96.5344C81.9236 95.9913 82.1215 94.8624 81.55 94.0451C80.9785 93.2277 79.854 93.0316 79.0162 93.5726C69.2372 99.8861 57.5053 102.514 45.9317 100.945C33.7605 99.2948 22.6565 93.1237 14.8281 83.6591C6.9998 74.1945 3.02088 62.1301 3.6828 49.8654C4.34472 37.6007 9.59897 26.0345 18.4005 17.4674C27.2019 8.90036 38.9057 3.96016 51.1838 3.62948C63.4619 3.2988 75.4146 7.60186 84.6644 15.6828C93.9143 23.7637 99.7835 35.0302 101.105 47.2415C102.361 58.8532 99.4172 70.51 92.842 80.1149C92.2786 80.9379 92.4443 82.0672 93.2459 82.6606Z"/>
</mask>
<path d="M93.2459 82.6606C94.0476 83.254 95.1814 83.0866 95.7469 82.2651C102.861 71.9296 106.049 59.3669 104.695 46.853C103.277 33.7396 96.9739 21.6407 87.0407 12.9628C77.1075 4.28488 64.2717 -0.336082 51.0865 0.0190306C37.9014 0.374143 25.333 5.67931 15.8813 14.8793C6.42953 24.0793 0.787111 36.4999 0.0762916 49.6707C-0.634527 62.8415 3.63835 75.7973 12.045 85.9611C20.4517 96.1249 32.3761 102.752 45.4465 104.524C57.9193 106.215 70.5634 103.367 81.0871 96.5344C81.9236 95.9913 82.1215 94.8624 81.55 94.0451C80.9785 93.2277 79.854 93.0316 79.0162 93.5726C69.2372 99.8861 57.5053 102.514 45.9317 100.945C33.7605 99.2948 22.6565 93.1237 14.8281 83.6591C6.9998 74.1945 3.02088 62.1301 3.6828 49.8654C4.34472 37.6007 9.59897 26.0345 18.4005 17.4674C27.2019 8.90036 38.9057 3.96016 51.1838 3.62948C63.4619 3.2988 75.4146 7.60186 84.6644 15.6828C93.9143 23.7637 99.7835 35.0302 101.105 47.2415C102.361 58.8532 99.4172 70.51 92.842 80.1149C92.2786 80.9379 92.4443 82.0672 93.2459 82.6606Z" stroke="#5BC22A" stroke-width="8" stroke-linecap="round" stroke-linejoin="round" mask="url(#path-1-inside-1)"/>
<mask id="path-2-inside-2" fill="white">
<path d="M17.6927 35.9349C16.7826 35.5181 15.7028 35.9166 15.3272 36.8445C12.0687 44.8966 11.4932 53.804 13.7155 62.2348C16.0921 71.251 21.5214 79.1641 29.0783 84.626C36.6352 90.0879 45.8522 92.7605 55.1587 92.1886C64.4653 91.6166 73.2856 87.8354 80.1168 81.4893C86.948 75.1431 91.3675 66.6247 92.6221 57.3854C93.8768 48.1461 91.889 38.7575 86.9975 30.8195C82.106 22.8815 74.6134 16.8851 65.7964 13.8521C57.5518 11.016 48.6262 10.935 40.3563 13.5927C39.4033 13.899 38.9265 14.9465 39.2753 15.8848C39.624 16.8231 40.6664 17.2964 41.6208 16.9944C49.1031 14.6264 57.1658 14.7167 64.6172 17.28C72.6411 20.0402 79.4598 25.4972 83.9113 32.7213C88.3628 39.9453 90.1718 48.4893 89.03 56.8976C87.8882 65.3058 83.8663 73.0581 77.6495 78.8334C71.4328 84.6087 63.4058 88.0498 54.9364 88.5703C46.4669 89.0908 38.079 86.6586 31.2018 81.688C24.3246 76.7174 19.3837 69.516 17.2209 61.3108C15.2124 53.6912 15.7151 45.6437 18.6268 38.3557C18.9981 37.4261 18.6028 36.3517 17.6927 35.9349Z"/>
</mask>
<path d="M17.6927 35.9349C16.7826 35.5181 15.7028 35.9166 15.3272 36.8445C12.0687 44.8966 11.4932 53.804 13.7155 62.2348C16.0921 71.251 21.5214 79.1641 29.0783 84.626C36.6352 90.0879 45.8522 92.7605 55.1587 92.1886C64.4653 91.6166 73.2856 87.8354 80.1168 81.4893C86.948 75.1431 91.3675 66.6247 92.6221 57.3854C93.8768 48.1461 91.889 38.7575 86.9975 30.8195C82.106 22.8815 74.6134 16.8851 65.7964 13.8521C57.5518 11.016 48.6262 10.935 40.3563 13.5927C39.4033 13.899 38.9265 14.9465 39.2753 15.8848C39.624 16.8231 40.6664 17.2964 41.6208 16.9944C49.1031 14.6264 57.1658 14.7167 64.6172 17.28C72.6411 20.0402 79.4598 25.4972 83.9113 32.7213C88.3628 39.9453 90.1718 48.4893 89.03 56.8976C87.8882 65.3058 83.8663 73.0581 77.6495 78.8334C71.4328 84.6087 63.4058 88.0498 54.9364 88.5703C46.4669 89.0908 38.079 86.6586 31.2018 81.688C24.3246 76.7174 19.3837 69.516 17.2209 61.3108C15.2124 53.6912 15.7151 45.6437 18.6268 38.3557C18.9981 37.4261 18.6028 36.3517 17.6927 35.9349Z" stroke="#5BC22A" stroke-width="8" stroke-linecap="round" stroke-linejoin="round" mask="url(#path-2-inside-2)"/>
<circle cx="88" cy="88" r="2" fill="#5BC22A"/>
<path d="M21.9141 76.2389C23.588 74.1085 28.3967 69.665 34.2401 68.9346C40.0836 68.2041 60.1097 68.6302 69.3923 68.9346C71.3706 68.9345 76.8793 70.3953 83.088 76.2389" stroke="#5BC22A" stroke-width="4"/>
<circle cx="52.9582" cy="43.5652" r="16.4348" stroke="#5BC22A" stroke-width="4"/>
</svg>
