<svg width="259" height="70" viewBox="0 0 259 70" fill="none" xmlns="http://www.w3.org/2000/svg">
<g filter="url(#filter0_d)">
<path d="M13.8152 5.67991C14.4482 2.38316 17.3326 0 20.6896 0H247.471C251.885 0 255.197 4.036 254.336 8.36547L244.79 56.3655C244.138 59.6409 241.264 62 237.924 62H11.4721C7.07668 62 3.7688 57.9965 4.59771 53.6799L13.8152 5.67991Z" fill="#464545"/>
</g>
<path d="M56.706 39.184C55.096 39.184 53.6393 38.8313 52.336 38.126C51.048 37.4053 50.036 36.424 49.3 35.182C48.564 33.9247 48.196 32.514 48.196 30.95C48.196 29.386 48.564 27.983 49.3 26.741C50.036 25.4837 51.0557 24.5023 52.359 23.797C53.6623 23.0763 55.119 22.716 56.729 22.716C57.9863 22.716 59.1363 22.9307 60.179 23.36C61.2217 23.774 62.111 24.395 62.847 25.223L61.352 26.672C60.1407 25.3993 58.6303 24.763 56.821 24.763C55.625 24.763 54.544 25.0313 53.578 25.568C52.612 26.1047 51.853 26.8483 51.301 27.799C50.7643 28.7343 50.496 29.7847 50.496 30.95C50.496 32.1153 50.7643 33.1733 51.301 34.124C51.853 35.0593 52.612 35.7953 53.578 36.332C54.544 36.8687 55.625 37.137 56.821 37.137C58.615 37.137 60.1253 36.493 61.352 35.205L62.847 36.654C62.111 37.482 61.214 38.1107 60.156 38.54C59.1133 38.9693 57.9633 39.184 56.706 39.184ZM69.8376 26.695C71.5242 26.695 72.8122 27.109 73.7016 27.937C74.6062 28.765 75.0586 29.9993 75.0586 31.64V39H72.9656V37.39C72.5976 37.9573 72.0686 38.3943 71.3786 38.701C70.7039 38.9923 69.8989 39.138 68.9636 39.138C67.5989 39.138 66.5026 38.8083 65.6746 38.149C64.8619 37.4897 64.4556 36.6233 64.4556 35.55C64.4556 34.4767 64.8466 33.618 65.6286 32.974C66.4106 32.3147 67.6526 31.985 69.3546 31.985H72.8506V31.548C72.8506 30.5973 72.5746 29.869 72.0226 29.363C71.4706 28.857 70.6579 28.604 69.5846 28.604C68.8639 28.604 68.1586 28.7267 67.4686 28.972C66.7786 29.202 66.1959 29.5163 65.7206 29.915L64.8006 28.259C65.4292 27.753 66.1806 27.3697 67.0546 27.109C67.9286 26.833 68.8562 26.695 69.8376 26.695ZM69.3316 37.436C70.1749 37.436 70.9032 37.252 71.5166 36.884C72.1299 36.5007 72.5746 35.964 72.8506 35.274V33.572H69.4466C67.5759 33.572 66.6406 34.2007 66.6406 35.458C66.6406 36.0713 66.8782 36.5543 67.3536 36.907C67.8289 37.2597 68.4882 37.436 69.3316 37.436ZM88.1195 28.742H83.6575V39H81.4495V28.742H76.9875V26.81H88.1195V28.742ZM96.0123 30.95C97.5609 30.9653 98.7416 31.318 99.5543 32.008C100.367 32.698 100.773 33.6717 100.773 34.929C100.773 36.2477 100.329 37.2673 99.4393 37.988C98.5653 38.6933 97.3079 39.0383 95.6673 39.023L90.3773 39V26.81H92.5853V30.927L96.0123 30.95ZM95.4833 37.344C96.4799 37.3593 97.2313 37.16 97.7373 36.746C98.2586 36.332 98.5193 35.7187 98.5193 34.906C98.5193 34.1087 98.2663 33.526 97.7603 33.158C97.2696 32.79 96.5106 32.5983 95.4833 32.583L92.5853 32.537V37.321L95.4833 37.344ZM112.506 26.81V39H110.528V35.136H106.986H106.733L104.065 39H101.696L104.663 34.837C103.743 34.561 103.037 34.1087 102.547 33.48C102.056 32.836 101.811 32.0387 101.811 31.088C101.811 29.6927 102.286 28.6347 103.237 27.914C104.187 27.178 105.498 26.81 107.17 26.81H112.506ZM104.065 31.157C104.065 31.9697 104.318 32.5753 104.824 32.974C105.345 33.3573 106.119 33.549 107.147 33.549H110.528V28.742H107.239C105.123 28.742 104.065 29.547 104.065 31.157ZM134.951 36.999V39H123.267V22.9H134.629V24.901H125.567V29.846H133.64V31.801H125.567V36.999H134.951ZM143.417 39.138C142.205 39.138 141.117 38.8697 140.151 38.333C139.185 37.7963 138.426 37.0603 137.874 36.125C137.337 35.1743 137.069 34.101 137.069 32.905C137.069 31.709 137.337 30.6433 137.874 29.708C138.426 28.7573 139.185 28.0213 140.151 27.5C141.117 26.9633 142.205 26.695 143.417 26.695C144.628 26.695 145.709 26.9633 146.66 27.5C147.626 28.0213 148.377 28.7573 148.914 29.708C149.466 30.6433 149.742 31.709 149.742 32.905C149.742 34.101 149.466 35.1743 148.914 36.125C148.377 37.0603 147.626 37.7963 146.66 38.333C145.709 38.8697 144.628 39.138 143.417 39.138ZM143.417 37.206C144.199 37.206 144.896 37.0297 145.51 36.677C146.138 36.309 146.629 35.803 146.982 35.159C147.334 34.4997 147.511 33.7483 147.511 32.905C147.511 32.0617 147.334 31.318 146.982 30.674C146.629 30.0147 146.138 29.5087 145.51 29.156C144.896 28.8033 144.199 28.627 143.417 28.627C142.635 28.627 141.929 28.8033 141.301 29.156C140.687 29.5087 140.197 30.0147 139.829 30.674C139.476 31.318 139.3 32.0617 139.3 32.905C139.3 33.7483 139.476 34.4997 139.829 35.159C140.197 35.803 140.687 36.309 141.301 36.677C141.929 37.0297 142.635 37.206 143.417 37.206ZM153.302 21.796C153.732 21.796 154.084 21.9493 154.36 22.256C154.652 22.5473 154.797 22.9153 154.797 23.36C154.797 23.59 154.774 23.82 154.728 24.05C154.682 24.2647 154.583 24.579 154.429 24.993L153.325 28.213H151.876L152.727 24.786C152.436 24.6787 152.198 24.5023 152.014 24.257C151.846 23.9963 151.761 23.6973 151.761 23.36C151.761 22.9 151.907 22.5243 152.198 22.233C152.49 21.9417 152.858 21.796 153.302 21.796ZM170.067 24.901H164.547V39H162.293V24.901H156.796V22.9H170.067V24.901ZM179.344 39L175.825 34.331L172.26 39H169.799L174.606 32.767L170.029 26.81H172.49L175.848 31.203L179.183 26.81H181.598L176.998 32.767L181.851 39H179.344ZM188.297 26.695C189.983 26.695 191.271 27.109 192.161 27.937C193.065 28.765 193.518 29.9993 193.518 31.64V39H191.425V37.39C191.057 37.9573 190.528 38.3943 189.838 38.701C189.163 38.9923 188.358 39.138 187.423 39.138C186.058 39.138 184.962 38.8083 184.134 38.149C183.321 37.4897 182.915 36.6233 182.915 35.55C182.915 34.4767 183.306 33.618 184.088 32.974C184.87 32.3147 186.112 31.985 187.814 31.985H191.31V31.548C191.31 30.5973 191.034 29.869 190.482 29.363C189.93 28.857 189.117 28.604 188.044 28.604C187.323 28.604 186.618 28.7267 185.928 28.972C185.238 29.202 184.655 29.5163 184.18 29.915L183.26 28.259C183.888 27.753 184.64 27.3697 185.514 27.109C186.388 26.833 187.315 26.695 188.297 26.695ZM187.791 37.436C188.634 37.436 189.362 37.252 189.976 36.884C190.589 36.5007 191.034 35.964 191.31 35.274V33.572H187.906C186.035 33.572 185.1 34.2007 185.1 35.458C185.1 36.0713 185.337 36.5543 185.813 36.907C186.288 37.2597 186.947 37.436 187.791 37.436ZM197.493 26.81H199.701V31.985H206.647V26.81H208.855V39H206.647V33.894H199.701V39H197.493V26.81Z" fill="white"/>
<defs>
<filter id="filter0_d" x="0.470703" y="0" width="258.003" height="70" filterUnits="userSpaceOnUse" color-interpolation-filters="sRGB">
<feFlood flood-opacity="0" result="BackgroundImageFix"/>
<feColorMatrix in="SourceAlpha" type="matrix" values="0 0 0 0 0 0 0 0 0 0 0 0 0 0 0 0 0 0 127 0"/>
<feOffset dy="4"/>
<feGaussianBlur stdDeviation="2"/>
<feColorMatrix type="matrix" values="0 0 0 0 0 0 0 0 0 0 0 0 0 0 0 0 0 0 0.25 0"/>
<feBlend mode="normal" in2="BackgroundImageFix" result="effect1_dropShadow"/>
<feBlend mode="normal" in="SourceGraphic" in2="effect1_dropShadow" result="shape"/>
</filter>
</defs>
</svg>
